<?xml version="1.0" encoding="UTF-8" standalone="no"?>
<!DOCTYPE svg PUBLIC "-//W3C//DTD SVG 1.1//EN"
 "http://www.w3.org/Graphics/SVG/1.1/DTD/svg11.dtd">
<!-- Generated by graphviz version 2.43.0 (0)
 -->
<!-- Title: workflow Pages: 1 -->
<svg width="768pt" height="264pt"
 viewBox="0.00 0.00 768.00 264.00" xmlns="http://www.w3.org/2000/svg" xmlns:xlink="http://www.w3.org/1999/xlink">
<g id="graph0" class="graph" transform="scale(1 1) rotate(0) translate(4 260)">
<title>workflow</title>
<polygon fill="white" stroke="transparent" points="-4,4 -4,-260 764,-260 764,4 -4,4"/>
<!-- place_21c50805b553b7a40e48394a5d77d442587ddee2 -->
<g id="node1" class="node">
<title>place_21c50805b553b7a40e48394a5d77d442587ddee2</title>
<ellipse fill="lightblue" stroke="#333333" cx="36" cy="-36" rx="36" ry="36"/>
<text text-anchor="middle" x="36" y="-33.8" font-family="Arial" font-size="9.00">created</text>
</g>
<!-- place_c2a6b03f190dfb2b4aa91f8af8d477a9bc3401dc -->
<g id="node2" class="node">
<title>place_c2a6b03f190dfb2b4aa91f8af8d477a9bc3401dc</title>
<ellipse fill="none" stroke="#333333" cx="175" cy="-36" rx="36" ry="36"/>
<text text-anchor="middle" x="175" y="-33.8" font-family="Arial" font-size="9.00">new</text>
</g>
<!-- place_21c50805b553b7a40e48394a5d77d442587ddee2&#45;&gt;place_c2a6b03f190dfb2b4aa91f8af8d477a9bc3401dc -->
<g id="edge1" class="edge">
<title>place_21c50805b553b7a40e48394a5d77d442587ddee2&#45;&gt;place_c2a6b03f190dfb2b4aa91f8af8d477a9bc3401dc</title>
<path fill="none" stroke="#333333" d="M72.28,-36C90.98,-36 114.03,-36 133.46,-36"/>
<polygon fill="#333333" stroke="#333333" points="133.84,-37.75 138.84,-36 133.84,-34.25 133.84,-37.75"/>
<text text-anchor="middle" x="105.5" y="-38.8" font-family="Arial" font-size="9.00">created</text>
</g>
<!-- place_25b075eff0c804307db3d42439bec470bfff8ce2 -->
<g id="node3" class="node">
<title>place_25b075eff0c804307db3d42439bec470bfff8ce2</title>
<ellipse fill="none" stroke="#333333" cx="377" cy="-99" rx="36" ry="36"/>
<text text-anchor="middle" x="377" y="-96.8" font-family="Arial" font-size="9.00">discussing</text>
</g>
<!-- place_c2a6b03f190dfb2b4aa91f8af8d477a9bc3401dc&#45;&gt;place_25b075eff0c804307db3d42439bec470bfff8ce2 -->
<g id="edge2" class="edge">
<title>place_c2a6b03f190dfb2b4aa91f8af8d477a9bc3401dc&#45;&gt;place_25b075eff0c804307db3d42439bec470bfff8ce2</title>
<path fill="none" stroke="#333333" d="M209.48,-46.54C244.81,-57.67 300.42,-75.19 337.53,-86.88"/>
<polygon fill="#333333" stroke="#333333" points="337.12,-88.59 342.42,-88.42 338.17,-85.25 337.12,-88.59"/>
<text text-anchor="middle" x="276" y="-84.8" font-family="Arial" font-size="9.00">consider for discussing</text>
</g>
<!-- place_ea88fbaa99b73225752e2ef67593f775848160ad -->
<g id="node6" class="node">
<title>place_ea88fbaa99b73225752e2ef67593f775848160ad</title>
<ellipse fill="none" stroke="#333333" cx="724" cy="-82" rx="36" ry="36"/>
<text text-anchor="middle" x="724" y="-79.8" font-family="Arial" font-size="9.00">closed</text>
</g>
<!-- place_c2a6b03f190dfb2b4aa91f8af8d477a9bc3401dc&#45;&gt;place_ea88fbaa99b73225752e2ef67593f775848160ad -->
<g id="edge3" class="edge">
<title>place_c2a6b03f190dfb2b4aa91f8af8d477a9bc3401dc&#45;&gt;place_ea88fbaa99b73225752e2ef67593f775848160ad</title>
<path fill="none" stroke="#333333" d="M211.21,-36.88C292.42,-39.25 499.03,-47.31 670,-71 674.44,-71.62 679.07,-72.38 683.66,-73.23"/>
<polygon fill="#333333" stroke="#333333" points="683.38,-74.95 688.62,-74.17 684.03,-71.52 683.38,-74.95"/>
<text text-anchor="middle" x="478" y="-56.8" font-family="Arial" font-size="9.00">irrelevant</text>
</g>
<!-- place_51c817ab85e3c10c1544cbe74ec1106357ad59f5 -->
<g id="node4" class="node">
<title>place_51c817ab85e3c10c1544cbe74ec1106357ad59f5</title>
<ellipse fill="none" stroke="#333333" cx="579" cy="-220" rx="36" ry="36"/>
<text text-anchor="middle" x="579" y="-217.8" font-family="Arial" font-size="9.00">accepted</text>
</g>
<!-- place_25b075eff0c804307db3d42439bec470bfff8ce2&#45;&gt;place_51c817ab85e3c10c1544cbe74ec1106357ad59f5 -->
<g id="edge6" class="edge">
<title>place_25b075eff0c804307db3d42439bec470bfff8ce2&#45;&gt;place_51c817ab85e3c10c1544cbe74ec1106357ad59f5</title>
<path fill="none" stroke="#333333" d="M406.22,-120.09C414.12,-125.75 422.79,-131.76 431,-137 467.94,-160.57 511.86,-184.92 542.02,-201.1"/>
<polygon fill="#333333" stroke="#333333" points="541.51,-202.81 546.74,-203.62 543.16,-199.72 541.51,-202.81"/>
<text text-anchor="middle" x="478" y="-193.8" font-family="Arial" font-size="9.00">accpeted</text>
</g>
<!-- place_18acbf7c06f510cf34f0277f99fb833866b90914 -->
<g id="node5" class="node">
<title>place_18acbf7c06f510cf34f0277f99fb833866b90914</title>
<ellipse fill="none" stroke="#333333" cx="579" cy="-130" rx="36" ry="36"/>
<text text-anchor="middle" x="579" y="-127.8" font-family="Arial" font-size="9.00">for later</text>
</g>
<!-- place_25b075eff0c804307db3d42439bec470bfff8ce2&#45;&gt;place_18acbf7c06f510cf34f0277f99fb833866b90914 -->
<g id="edge7" class="edge">
<title>place_25b075eff0c804307db3d42439bec470bfff8ce2&#45;&gt;place_18acbf7c06f510cf34f0277f99fb833866b90914</title>
<path fill="none" stroke="#333333" d="M412.43,-106.51C418.6,-107.75 424.98,-108.97 431,-110 467.12,-116.2 508.49,-121.68 538.12,-125.33"/>
<polygon fill="#333333" stroke="#333333" points="537.97,-127.08 543.15,-125.95 538.4,-123.6 537.97,-127.08"/>
<text text-anchor="middle" x="478" y="-125.8" font-family="Arial" font-size="9.00">considered for later</text>
</g>
<!-- place_25b075eff0c804307db3d42439bec470bfff8ce2&#45;&gt;place_ea88fbaa99b73225752e2ef67593f775848160ad -->
<g id="edge8" class="edge">
<title>place_25b075eff0c804307db3d42439bec470bfff8ce2&#45;&gt;place_ea88fbaa99b73225752e2ef67593f775848160ad</title>
<path fill="none" stroke="#333333" d="M412.41,-91.39C418.58,-90.16 424.97,-88.97 431,-88 511.93,-74.93 533.06,-72.35 615,-75 637.51,-75.73 662.61,-77.31 682.94,-78.78"/>
<polygon fill="#333333" stroke="#333333" points="682.89,-80.54 688.01,-79.16 683.15,-77.04 682.89,-80.54"/>
<text text-anchor="middle" x="579" y="-77.8" font-family="Arial" font-size="9.00">not accepted</text>
</g>
<!-- place_51c817ab85e3c10c1544cbe74ec1106357ad59f5&#45;&gt;place_ea88fbaa99b73225752e2ef67593f775848160ad -->
<g id="edge9" class="edge">
<title>place_51c817ab85e3c10c1544cbe74ec1106357ad59f5&#45;&gt;place_ea88fbaa99b73225752e2ef67593f775848160ad</title>
<path fill="none" stroke="#333333" d="M605.57,-195.33C630.22,-171.53 667.51,-135.55 693.43,-110.53"/>
<polygon fill="#333333" stroke="#333333" points="694.79,-111.65 697.17,-106.92 692.36,-109.14 694.79,-111.65"/>
<text text-anchor="middle" x="651.5" y="-169.8" font-family="Arial" font-size="9.00">done</text>
</g>
<!-- place_18acbf7c06f510cf34f0277f99fb833866b90914&#45;&gt;place_25b075eff0c804307db3d42439bec470bfff8ce2 -->
<g id="edge4" class="edge">
<title>place_18acbf7c06f510cf34f0277f99fb833866b90914&#45;&gt;place_25b075eff0c804307db3d42439bec470bfff8ce2</title>
<path fill="none" stroke="#333333" d="M548.88,-110.05C541.41,-105.93 533.17,-102.18 525,-100 489.69,-90.57 447.88,-91.38 417.89,-93.92"/>
<polygon fill="#333333" stroke="#333333" points="417.64,-92.19 412.81,-94.38 417.95,-95.67 417.64,-92.19"/>
<text text-anchor="middle" x="478" y="-102.8" font-family="Arial" font-size="9.00">consider for discussing</text>
</g>
<!-- place_18acbf7c06f510cf34f0277f99fb833866b90914&#45;&gt;place_ea88fbaa99b73225752e2ef67593f775848160ad -->
<g id="edge5" class="edge">
<title>place_18acbf7c06f510cf34f0277f99fb833866b90914&#45;&gt;place_ea88fbaa99b73225752e2ef67593f775848160ad</title>
<path fill="none" stroke="#333333" d="M613.53,-118.75C634.86,-111.58 662.55,-102.29 684.75,-94.84"/>
<polygon fill="#333333" stroke="#333333" points="685.5,-96.43 689.68,-93.18 684.39,-93.12 685.5,-96.43"/>
<text text-anchor="middle" x="651.5" y="-113.8" font-family="Arial" font-size="9.00">over due</text>
</g>
</g>
</svg>
